<?xml version="1.0" encoding="utf-8"?>
<!-- Generator: Adobe Illustrator 25.2.2, SVG Export Plug-In . SVG Version: 6.00 Build 0)  -->
<svg version="1.1" xmlns="http://www.w3.org/2000/svg" xmlns:xlink="http://www.w3.org/1999/xlink" x="0px" y="0px"
	 viewBox="0 0 60 60" style="enable-background:new 0 0 60 60;" xml:space="preserve">
<style type="text/css">
	.st0{fill:#774703;}
	.st1{fill:#845202;}
	.st2{fill:#FFCB9E;}
	.st3{opacity:0.35;fill:#B55623;}
	.st4{fill:#FFD8B5;}
	.st5{opacity:0.6;fill:#D9AF96;}
	.st6{fill:#704404;}
	.st7{fill:#2B2521;}
	.st8{opacity:0.7;fill:url(#SVGID_1_);}
	.st9{opacity:0.7;fill:url(#SVGID_2_);}
	.st10{fill:#00619E;}
	.st11{fill:#8E5604;}
	.st12{fill:none;stroke:#3F2D10;}
	.st13{display:none;}
	.st14{display:inline;fill:#372416;}
	.st15{display:inline;fill:#DD3D59;}
	.st16{display:inline;fill:#FFF5F0;}
	.st17{display:inline;}
	.st18{fill:#6F5E51;}
	.st19{fill:#372416;}
	.st20{fill:#FFF5F0;}
	.st21{fill:#211011;}
	.st22{fill:#A89191;}
	.st23{display:inline;fill:none;stroke:#211011;stroke-miterlimit:10;}
</style>
<g id="Espen_1_">
	<g id="Espen">
		<g>
			<path class="st0" d="M47,27.4c0.5-1,0.3-10.3,1.5-9.2c4.3,3.8,0.8,10.5,3.3,15.3c0.3,0.6-2.3,0.6-2.5,0.5
				C46.5,33.2,45.7,29.6,47,27.4z"/>
			<path class="st1" d="M46.4,26.2c1.9-0.8,4.1-1.4,1.8-9.5c-2.5-8.8-14-13-22.9-10.1c-21.5,7-14.3,31.8-8,29.9
				C23.6,34.6,44.5,27,46.4,26.2z"/>
			<path class="st2" d="M15.4,34.6c1.8,11.5,11,19.6,20.4,18.1c9.4-1.5,15.6-12,13.8-23.5C47.8,17.6,38.7,9.5,29.2,11
				C19.8,12.6,13.6,23.1,15.4,34.6z"/>
			<path class="st3" d="M39.1,32.4c0.5,0.4-0.3,1.9-2.1,2.2c-1.9,0.3-3.1-1.2-2.4-1.7c0.7-0.5,1.2-0.1,2.2-0.2
				C38,32.5,38.5,31.9,39.1,32.4z"/>
			<path class="st4" d="M38.9,32.5c0.5-0.5-0.3-2.4-2.5-2c-1.9,0.3-2.6,2-1.6,2.6C36.1,33.8,38.2,33.2,38.9,32.5z"/>
			<path class="st2" d="M14,40.8c1.3,0.3,2.6,0.2,3.8,0c0,0,0-0.1,0.1-0.1c0.5-0.8-0.7-4.7-1.1-5.5c-0.9-2-2.1-3.3-4.3-2.5
				C7.9,34.3,10.1,40,14,40.8z"/>
			<path class="st5" d="M18.3,28.7c0.1-1.9,0.3-3.8,1-5.6c1.4-3.6,5-5.2,8.5-6.2c4.4-1.2,9.2-1.5,13.7-1.2c1.1,0.1,5.8,0.2,5.1,2.1
				c-0.6,1.6-2.7,3.2-4.1,3.6c-2,0.6-6,0.9-8.1,1c-7,0.2-9.9,2.7-10.6,4.2c-0.2-0.8,0.1-2.4,0.5-3.2c-0.1,0.2-2.6,2.1-2.8,4.6
				c-0.2,2.8-1.9,2.9-2,5.8C18.8,33.6,18.1,31.1,18.3,28.7z"/>
			<path class="st1" d="M21.5,12.8c-6.1,3.5-8.7,14.2-7.4,20.3c0.7,3.5,5.6,3.1,5.4,1.1c-0.8-6.1-0.4-10.5,8.3-13.7
				c6.9-2.6,15.4-2.8,17.8-1.6c2.3,1.2-0.6-4.3-7.2-7.3C31.7,8.7,26.2,10.2,21.5,12.8z"/>
			<path class="st5" d="M16.4,39.4c2.1-0.9,0.3-4.2-1.2-4.7c-1.3-0.5-4.5,0.2-3.1,2.1c0.9-1.7,2.2-0.5,1.9,0.7
				c-0.2,0.8-1.4,0.8-0.3,1.9C14.4,39.9,15.7,39.7,16.4,39.4z"/>
			<path class="st6" d="M49.9,17.5c-5.8,5.6-18.3,1.1-24.6,6.1c-0.1-0.9,0.1-1.9,0.4-2.7c-0.2,0.5-3.3,2-3.9,1.9
				c-1.7-0.1-2.7-1.8-3.3-3.1c-1.8-3.9-1.7-7.9,1.7-10.5C24.8,5.7,30.9,5,36.7,5.8C46.8,7.2,52.6,14.9,49.9,17.5z"/>
			<path class="st1" d="M20,38.9c0.2,0,0.3,0,0.5,0c-0.1-2.1-0.8-4-1-6.1c-0.2-1.5-0.3-1.7-1.4-2.2c-1.2-0.5-2.8,0.2-4.2-0.3
				c0.6,0.3,0.5,2.8,0.5,3.3C14.6,37,16.8,38.9,20,38.9z"/>
			<path class="st0" d="M11.6,11.2c2.4,5.2,9,3,11.8,0.9c1.3-1,2.5-5.8,0.2-5c-3.2,1.1-6.6,2.2-9.4,0.9c0.1,0.6,0.2,2.1,1.6,2.7
				C15.1,11.6,13.4,11.9,11.6,11.2z"/>
			<path class="st7" d="M44.9,22.7c1.2-0.2,1.5-0.8,0.2-1.2c-0.7-0.2-1.6-0.1-2.3,0c-0.4,0-2.2,0-2.5,0.4
				C39.3,23.3,44.5,22.7,44.9,22.7z"/>
			<path class="st7" d="M24.6,26c-1.2,0.2-1.7-0.3-0.6-1.1c0.6-0.5,1.4-0.7,2.1-0.8c0.4-0.1,2-0.8,2.4-0.5C30,24.6,25,25.9,24.6,26z
				"/>
			<g>
				<g>
					<path class="st7" d="M48.5,23.6c-1.5-1.3-8.5,0-9.7,1.9c-0.8,1.3,0.1,5.7,1.1,6.7c1,0.9,7.8-0.4,9.1-1.2
						C50.4,30.1,50,24.9,48.5,23.6z M48.7,29.9c-1.1,0.7-6.9,1.9-7.7,1.3c-0.9-0.6-1.8-3.8-1.2-4.7c0.9-1.4,6.9-2.7,8.2-1.8
						C49.2,25.5,49.8,29.2,48.7,29.9z"/>
				</g>
				<g>
					<path class="st7" d="M32.1,26.3c-1.7-1.4-10.2-0.1-11.6,1.9c-1,1.3,0,6.1,1.2,7.1c1.2,1,9.3-0.3,10.9-1.2
						C34.3,33.2,33.8,27.7,32.1,26.3z M32.2,32.8c-1.4,0.7-8.2,1.9-9.3,1.3c-1-0.7-2.1-3.9-1.4-4.9c1.1-1.4,8.2-2.7,9.8-1.8
						C32.9,28.3,33.6,32.1,32.2,32.8z"/>
				</g>
				<path class="st7" d="M36.4,28.8c-0.7,0.1-1.3,0.3-2,0.6c-0.2,0.1-1.1,0.9-1.3,0.9c-0.7-0.2,1-1.7,1.2-1.8
					c1.3-0.8,3.6-1.1,4.7,0.3c0.6,0.8-0.1,0.6-0.5,0.4C37.7,28.8,37.3,28.6,36.4,28.8z"/>
				<linearGradient id="SVGID_1_" gradientUnits="userSpaceOnUse" x1="44.215" y1="31.474" x2="44.5875" y2="24.109">
					<stop  offset="0" style="stop-color:#403C37"/>
					<stop  offset="1" style="stop-color:#EDE9E3"/>
				</linearGradient>
				<path class="st8" d="M39.3,26.3c1-1.5,7.5-2.9,8.9-2c1.4,1,2.1,4.9,0.8,5.7c-1.2,0.8-7.5,2.1-8.4,1.4
					C39.7,30.8,38.6,27.4,39.3,26.3z"/>
				
					<linearGradient id="SVGID_2_" gradientUnits="userSpaceOnUse" x1="-19.6191" y1="47.2142" x2="-19.2466" y2="39.8494" gradientTransform="matrix(1.1475 -1.200000e-03 -1.200000e-03 1.0494 49.4619 -15.131)">
					<stop  offset="0" style="stop-color:#403C37"/>
					<stop  offset="1" style="stop-color:#EDE9E3"/>
				</linearGradient>
				<path class="st9" d="M21.3,29c1.2-1.6,8.6-3.1,10.2-2.1s2.3,5.2,0.9,6c-1.4,0.8-8.6,2.2-9.6,1.5C21.7,33.7,20.5,30.1,21.3,29z"
					/>
				<path class="st10" d="M48.8,26c0.2-3.4-4.8-1.4-5.7-0.9c-0.4,0.2-2.7,1.4-1.7,2.6C42.1,28.6,48.6,27.7,48.8,26z"/>
				<path class="st10" d="M31.9,29.4c1.1-1.6-0.4-2.6-1.3-2.7c-1.5-0.2-3.1,0.3-4.5,0.8c-0.5,0.2-3.5,1.1-2.4,2.6
					C24.8,31.7,30.8,31,31.9,29.4z"/>
				<path class="st7" d="M19.1,30.3c1.1-0.3,1.4-0.4,1.5,0.7c0.2,1.2,0.2,1.6-1.1,1.6c-0.9,0-1.9,0-2.9-0.1c-0.5-0.1-1.5-0.3-1.2-1
					C15.7,30.8,18.5,30.4,19.1,30.3z"/>
			</g>
		</g>
		<path class="st11" d="M46.2,18.3c5.2-2.1,1.8-6.4-1-8.4c-4.2-3-10-3.5-15.2-3.1c-4.1,0.4-11,2.2-12.3,6.8
			c-0.9,3.1,2.3,4.6,4.9,5.1c1.8,0.4,3.8,0.2,5.6,0c-0.4,0.6-0.8,1.3-1.2,1.9C33.2,19.6,40.3,20.7,46.2,18.3z"/>
	</g>
</g>
<g id="Mouths">
	<g id="Mouths_1_">
		<path id="EspenSmile" class="st12" d="M32.9,43.6c2,2.1,8.2,1,9-2.8"/>
		<g id="EspenAEI" class="st13">
			<path class="st14" d="M43.8,41.7c-1.3-1.8-2.5-2.3-3.3-2.4c-1.4-0.2-1.8,0.9-3.7,1.2c-2.2,0.4-3.1-0.5-4.4,0.3
				c-0.6,0.4-1.4,1.2-1.7,3.2c0.8,0.7,2.4,1.9,4.4,1.9c1.2,0.1,2.4-0.2,2.8-0.2c0.3,0,1.2-0.2,1.9-0.6
				C41.9,44.2,43.1,42.7,43.8,41.7z"/>
			<path class="st15" d="M34.5,44.4c0,0,1.8-2.6,5.3-0.8C39.8,43.6,37.1,45.6,34.5,44.4z"/>
			<path class="st16" d="M32.1,40.9c0.6-0.5,1.3-0.5,1.7-0.6c1.7-0.2,2.9-0.3,4.1-0.6c0,0,1.3-0.4,2.5-0.4c0.1,0,0.3,0,0.6,0
				c0.4,0.1,0.9,0.4,1.1,0.6c-0.1,0.4-0.3,0.7-0.5,1c-0.2,0.3-1.5,0.9-2.9,1.2c-0.4,0.1-0.9,0.2-1.2,0.2c-0.4,0.1-3.3,0.6-4.4,0.3
				c-0.3-0.1-0.9-0.3-1.3-1.1C31.7,41.3,31.9,41.1,32.1,40.9z"/>
			<path class="st16" d="M40.9,42.9c0,0,0.2-0.2,0.7-0.1c0.1,0,0.3,0.1,0.3,0.1c0.3,0.1,0.6,0.3,0.7,0.3c-0.3,0.5-1.2,1.2-2.1,1.7
				c-0.7,0.4-1.4,0.5-2.3,0.7c-1.1,0.2-1.8,0.3-2.8,0.2c-0.6,0-1.5-0.3-2.6-0.8c0.1-0.2,0.2-0.3,0.4-0.6c0,0,0.1-0.2,0.3-0.3
				c0.6-0.4,2.7-0.2,4.1-0.5C38.5,43.7,40.6,43.1,40.9,42.9z"/>
		</g>
		<g id="EspenNeutral" class="st13">
			<path class="st14" d="M43.9,41.8c-0.6-0.6-1.7-1.2-3-1.4c-1.4-0.2-1.7,0.4-3.8,0.8c-2.4,0.4-3,0-4.3,0.5
				c-1.1,0.5-1.8,1.5-2.1,2.1c0.8,0.7,2.4,1.9,4.4,1.9c1.2,0.1,2.4-0.2,2.8-0.2c0.3,0,1.2-0.2,1.9-0.6
				C41.9,44.2,43.1,42.7,43.9,41.8z"/>
			<path class="st15" d="M34.7,44.5c0.1-0.3,0.1-0.7,0.3-1.1c0.9-1.2,3.3-1.5,4.4-0.5c0.3,0.2,0.5,0.6,0.6,0.9
				C39.6,44,39,44.3,34.7,44.5z"/>
			<path class="st16" d="M32.3,41.8c0.5-0.4,1.1-0.5,1.7-0.6c1.1-0.1,2-0.2,2.8-0.2c1.6-0.3,2.4-0.6,2.9-0.7c0.1,0,0.5-0.2,1.1-0.2
				c0.4,0.1,0.7,0.1,0.7,0.1c0.3,0.1,0.6,0.3,0.8,0.4c-0.1,0.4-0.3,0.7-0.5,1c-0.2,0.3-1.5,0.9-2.9,1.2c-0.4,0.1-0.9,0.2-1.2,0.2
				c-0.4,0.1-3.3,0.6-4.4,0.3c-0.3-0.1-0.9-0.3-1.3-1C31.8,42.3,32.1,42.1,32.3,41.8z"/>
			<path class="st16" d="M41.1,43c0,0,0.2-0.2,0.7-0.1c0.1,0,0.3,0.1,0.3,0.1c0.3,0.1,0.4,0.2,0.6,0.3c-0.3,0.5-1,1.1-2,1.7
				c-0.7,0.4-1.4,0.5-2.3,0.7c-1.1,0.2-1.8,0.3-2.8,0.2c-0.6,0-1.7-0.1-2.7-0.7c0.1-0.2,0.2-0.4,0.4-0.6c0,0,0.1-0.2,0.3-0.3
				c0.6-0.4,2.7-0.2,4.1-0.5C38.7,43.8,40.7,43.2,41.1,43z"/>
		</g>
		<g id="Espeno" class="st13">
			<path class="st14" d="M36.6,39.1c-0.4,0.1-1.5,0.3-1.4,2.2c0.1,0.4,0.3,1.2,0.4,1.7c0.1,0.5,0.1,2.2,0.5,2.6
				c0.4,0.6,1,0.9,1.8,0.8c0.8-0.1,1.5-0.8,1.3-1.7c-0.2-1.1-0.5-1.8-0.5-2.2c0-0.3-0.1-1.3-0.2-1.9C38.5,40.2,38.2,38.9,36.6,39.1z
				"/>
			<path class="st16" d="M38.4,40.2c0-0.1-0.2-0.5-0.4-0.7c-0.5-0.5-1.1-0.3-1.4-0.3c-0.3,0-0.8,0.1-1.1,0.6c-0.2,0.3-0.3,0.7-0.2,1
				C35.8,40.8,37.2,41.2,38.4,40.2z"/>
			<path class="st15" d="M36.3,45.9c0,0,0.7,1,1.6,0.8s1.3-1.1,1.3-1.2C37.8,44.5,36.8,45.4,36.3,45.9z"/>
		</g>
		<g id="EspenTHL" class="st13">
			<path class="st14" d="M44,42.4c-0.5-1-1.6-2.7-3.4-3.2c-0.9-0.3-1.8-0.1-3.7,0.1c-2.1,0.2-3.2,0.4-3.9,1c-1.7,1.1-2,3.2-2.1,4.2
				c0.8,0.7,2.4,1.9,4.4,1.9c1.2,0.1,2.4-0.2,2.8-0.2c0.3,0,1.2-0.2,1.9-0.6C42,44.9,43.2,43.4,44,42.4z"/>
			<path class="st15" d="M34.7,45.2c-0.5-1.8,0.9-3.6,2.3-3.7c1.5-0.1,2.9,1.1,3,3C40,44.4,37.2,46.4,34.7,45.2z"/>
			<path class="st16" d="M32.3,40.9c0.2-0.2,0.6-0.6,1.8-1.1c0.6-0.3,1.4-0.5,2.6-0.6c1.2-0.2,2.1-0.2,2.7-0.2
				c0.4,0.1,0.8,0.1,1.3,0.2c0.4,0.2,0.9,0.5,1.1,0.8c0,0.1-0.1,0.2-0.1,0.3c-0.2,0.3-0.6,0.5-0.7,0.5c-1.1,0.5-2.2,0.7-2.2,0.7
				c-0.9,0.2-1.3,0.2-1.6,0.3c0,0-2.4,0.4-4,0.4c-0.1,0-0.4-0.1-0.8-0.1c-0.3-0.1-0.4-0.2-0.6-0.3C31.8,41.5,32.1,41.2,32.3,40.9z"
				/>
			<path class="st16" d="M41.1,43.7c0,0,0.2-0.2,0.7-0.1c0.1,0,0.3,0.1,0.3,0.1c0.3,0.1,0.6,0.3,0.7,0.3c-0.3,0.5-1,1.1-2.1,1.7
				c-1,0.6-1.9,0.8-2.6,0.9c-0.5,0.1-1.6,0.3-3,0.1c-1-0.2-1.9-0.5-2.3-0.8c0.1-0.2,0.2-0.3,0.4-0.6c0,0,0.1-0.2,0.3-0.3
				c0.6-0.4,2.7-0.2,4.1-0.5C38.6,44.5,40.7,43.9,41.1,43.7z"/>
		</g>
		<g id="EspenFV" class="st13">
			<g class="st17">
				<path class="st18" d="M44,42.7c-0.4-0.5-1-0.9-1.7-1.3c-1.5-0.7-2.8-0.5-3.2-0.4c-0.5,0.1-0.5,0.2-1.3,0.4
					c-1.3,0.2-1.6,0.2-2.5,0.3c-0.4,0.1-2.9,0.5-4,2.5c-0.2,0.3-0.3,0.7-0.4,0.9c0.4-0.2,0.8-0.3,1-0.3c0.1,0,0.5-0.1,0.8-0.3
					c0.3,0,0.4-0.1,0.7-0.1c0,0,0.1,0,0.3,0c0.3,0,1.3-0.2,2.5-0.3c1.1-0.2,2-0.4,2.2-0.4c0.1,0,0.3,0,0.3,0c0.3,0,0.4-0.1,0.9-0.3
					c0.7-0.1,1.2-0.3,1.4-0.4C41.4,42.9,42.3,42.8,44,42.7z"/>
				<path class="st18" d="M39.5,40.9c-0.3,0-0.7,0.1-0.7,0.1c-0.3,0-0.3,0-0.5,0.2c-0.3,0-0.5,0.1-0.8,0.1c-0.5,0.1-0.9,0.2-1.1,0.2
					c-1.3,0.1-2,0.2-2.6,0.5c-0.2,0.2-0.9,0.3-1.4,0.8c0.4,0.5,0.7,0.7,1,0.8c0.9,0.5,2,0.3,3.9,0c0.4-0.1,0.5-0.1,0.9-0.2
					c1.1-0.2,2.1-0.5,2.6-1.3c0.1-0.2,0.3-0.5,0.4-1C41.2,41.1,40.2,40.8,39.5,40.9z"/>
				<path class="st18" d="M35.1,45.5c0.1,0,0.2-0.2,0.4-0.2c0.1,0,0.3,0,0.4-0.2c0.1,0,0.3,0,0.4-0.2c0.1,0,0.3,0,0.4-0.1
					c0.4-0.2,0.9-0.3,1.4-0.4c0.5-0.1,0.9-0.2,1.5-0.1c0.1,0,0.3,0,0.4-0.1c0.1,0,0.3,0,0.4,0.1l0.1,0l0.1,0c0.1,0,0.3,0.1,0.3,0.1
					c-0.1,0-0.3,0-0.4,0.1l-0.1,0l-0.1,0l-0.1,0l-0.1,0c-0.1,0-0.3,0-0.4,0.1c-0.4,0.1-0.9,0.2-1.3,0.2c-0.4,0.1-0.9,0.2-1.3,0.2
					C36.1,45.4,35.5,45.5,35.1,45.5z"/>
			</g>
			<g class="st17">
				<path class="st19" d="M44,42.7c-0.4-0.5-1-0.9-1.7-1.3c-1.5-0.7-2.8-0.5-3.2-0.4c-0.5,0.1-0.5,0.2-1.3,0.4
					c-1.3,0.2-1.6,0.2-2.5,0.3c-0.4,0.1-2.9,0.5-4,2.5c-0.2,0.3-0.3,0.7-0.4,0.9c0.4-0.2,0.8-0.3,1-0.3c0.1,0,0.5-0.1,0.8-0.3
					c0.3,0,0.4-0.1,0.7-0.1c0,0,0.1,0,0.3,0c0.3,0,1.3-0.2,2.5-0.3c1.1-0.2,2-0.4,2.2-0.4c0.1,0,0.3,0,0.3,0c0.3,0,0.4-0.1,0.9-0.3
					c0.7-0.1,1.2-0.3,1.4-0.4C41.4,42.9,42.3,42.8,44,42.7z"/>
				<path class="st20" d="M39.5,40.9c-0.3,0-0.7,0.1-0.7,0.1c-0.3,0-0.3,0-0.5,0.2c-0.3,0-0.5,0.1-0.8,0.1c-0.5,0.1-0.9,0.2-1.1,0.2
					c-1.3,0.1-2,0.2-2.6,0.5c-0.2,0.2-0.9,0.3-1.4,0.8c0.4,0.5,0.7,0.7,1,0.8c0.9,0.5,2,0.3,3.9,0c0.4-0.1,0.5-0.1,0.9-0.2
					c1.1-0.2,2.1-0.5,2.6-1.3c0.1-0.2,0.3-0.5,0.4-1C41.2,41.1,40.2,40.8,39.5,40.9z"/>
				<path class="st18" d="M35.1,45.5c0.1,0,0.2-0.2,0.4-0.2c0.1,0,0.3,0,0.4-0.2c0.1,0,0.3,0,0.4-0.2c0.1,0,0.3,0,0.4-0.1
					c0.4-0.2,0.9-0.3,1.4-0.4c0.5-0.1,0.9-0.2,1.5-0.1c0.1,0,0.3,0,0.4-0.1c0.1,0,0.3,0,0.4,0.1l0.1,0l0.1,0c0.1,0,0.3,0.1,0.3,0.1
					c-0.1,0-0.3,0-0.4,0.1l-0.1,0l-0.1,0l-0.1,0l-0.1,0c-0.1,0-0.3,0-0.4,0.1c-0.4,0.1-0.9,0.2-1.3,0.2c-0.4,0.1-0.9,0.2-1.3,0.2
					C36.1,45.4,35.5,45.5,35.1,45.5z"/>
			</g>
		</g>
		<g id="EspenQW" class="st13">
			<path class="st14" d="M40.9,41.2c-0.3-0.3-0.8-0.9-1.8-1.5c-0.5-0.3-1.5-0.8-2.8-0.6c-1.5,0.3-2.2,1.2-2.4,1.5
				c-0.5,0.8-0.8,1.5-0.9,1.9c0,0.3,0.5,2.8,2.6,3.6c0.3,0.1,1,0.5,2.1,0.3c1.5-0.3,2.3-1.1,2.5-1.4C41.3,43.6,41,41.6,40.9,41.2z"
				/>
			<path class="st16" d="M39.4,39.9c0,0-0.2-0.1-0.2-0.2c-1-0.9-2.4-0.7-2.8-0.6c-0.3,0-1.7,0.3-2.5,1.4c-0.1,0.2-0.1,0.3-0.2,0.3
				C34.8,41.1,37.1,41.5,39.4,39.9z"/>
			<path class="st15" d="M36.9,44.1c-1.2-0.5-2.6,0.2-3.3,0.7c0.2,0.4,0.5,0.6,0.7,0.8c0.2,0.1,0.3,0.3,0.6,0.6c0,0,0.3,0.2,0.6,0.3
				c0.7,0.3,1.5,0.3,1.8,0.2c1.5-0.1,2.4-1.2,2.6-1.6c0.4-0.6,0.6-1.2,0.8-1.5c-0.3-0.1-1-0.5-2.1-0.3
				C37.9,43.5,37.3,43.9,36.9,44.1z"/>
		</g>
	</g>
</g>
<g id="Eyes">
	<g id="Open">
		<g>
			<path class="st21" d="M28.2,32.7c-0.7-0.3-1.5-0.3-2.1,0c-1.6-1.1-0.5-5,1.7-4.3C29.3,29,29.5,31.8,28.2,32.7z"/>
		</g>
		<g>
			<path class="st21" d="M44.4,25.7c1.3,0.4,1.6,2.3,1,3.4c-0.6,0-1.3,0.4-1.7,0.8C41.1,29.7,42,24.9,44.4,25.7z"/>
		</g>
		<path class="st22" d="M27.1,29c0.7-0.3,1.3,0.8,0.8,1.3C27.1,31,26.3,29.4,27.1,29z"/>
		<path class="st22" d="M43.9,26.4c0.7-0.3,1.2,0.8,0.7,1.2C43.9,28.2,43.2,26.7,43.9,26.4z"/>
	</g>
	<g id="Closed" class="st13">
		<path class="st23" d="M25.3,31c0,0,0.2-0.3,1.9-0.3s1.9,0.3,1.9,0.3"/>
		<path class="st23" d="M42.5,29c0,0,0.1-0.4,1.7-0.8s1.9-0.1,1.9-0.1"/>
	</g>
</g>
</svg>
