<?xml version="1.0" encoding="utf-8"?>
<!-- Generator: Adobe Illustrator 25.2.2, SVG Export Plug-In . SVG Version: 6.00 Build 0)  -->
<svg version="1.1" xmlns="http://www.w3.org/2000/svg" xmlns:xlink="http://www.w3.org/1999/xlink" x="0px" y="0px"
	 viewBox="0 0 60 60" style="enable-background:new 0 0 60 60;" xml:space="preserve">
<style type="text/css">
	.st0{fill-rule:evenodd;clip-rule:evenodd;fill:#E9D2AF;stroke:#3F2D10;}
	.st1{fill-rule:evenodd;clip-rule:evenodd;fill:#372416;stroke:#120A04;}
	.st2{fill-rule:evenodd;clip-rule:evenodd;fill:#6F5E51;}
	.st3{fill:none;stroke:#3F2D10;}
	.st4{display:none;}
	.st5{display:inline;fill:#372416;}
	.st6{display:inline;fill:#DD3D59;}
	.st7{display:inline;fill:#FFF5F0;}
	.st8{display:inline;}
	.st9{fill:#6F5E51;}
	.st10{fill:#372416;}
	.st11{fill:#FFF5F0;}
	.st12{fill-rule:evenodd;clip-rule:evenodd;fill:#FFFFFF;stroke:#333333;}
	.st13{fill-rule:evenodd;clip-rule:evenodd;stroke:#000000;}
	.st14{display:inline;fill-rule:evenodd;clip-rule:evenodd;fill:none;stroke:#333333;}
</style>
<g id="svg2" xmlns:cc="http://creativecommons.org/ns#" xmlns:dc="http://purl.org/dc/elements/1.1/" xmlns:inkscape="http://www.inkscape.org/namespaces/inkscape" xmlns:rdf="http://www.w3.org/1999/02/22-rdf-syntax-ns#" xmlns:sodipodi="http://sodipodi.sourceforge.net/DTD/sodipodi-0.dtd" xmlns:svg="http://www.w3.org/2000/svg">
	
		<sodipodi:namedview  bordercolor="#666666" borderopacity="1.0" gridtolerance="10000" guidetolerance="10" id="base" inkscape:current-layer="layer1" inkscape:cx="202.19689" inkscape:cy="64" inkscape:document-units="px" inkscape:pageopacity="0.0" inkscape:pageshadow="2" inkscape:window-height="961" inkscape:window-width="1538" inkscape:window-x="21" inkscape:window-y="39" inkscape:zoom="1" objecttolerance="10" pagecolor="#ffffff" showgrid="false">
		</sodipodi:namedview>
	<g id="g3779" transform="translate(-98.921516,-24.251691)">
	</g>
	<path id="path2649" sodipodi:nodetypes="ccccccc" class="st0" d="M44.9,14.8c1.4,4.8-0.6,10.5-1.9,15.2c1.8,5.9,1.6,11.2-4,15.9
		c-6.4,2.1-20.2,3.1-22.4-6c-1.4-11.4,1.1-4.8-1.5-14.3C14.3,13.2,18.7,4.9,30.3,5.7C38.3,5.5,41.7,9.6,44.9,14.8z"/>
	<path id="path3359" class="st1" d="M40.4,18.1c0,0-7.2-4.5-7.1-2.6S40.4,18.2,40.4,18.1z"/>
	<path id="path2704" sodipodi:nodetypes="ccc" class="st0" d="M31,27.1c0.6,1.8,1.4,6.9-3.8,5.6c-1-3.6,0.4-6.6,1.9-7.5"/>
	<path id="path2708" sodipodi:nodetypes="cc" class="st0" d="M15.9,19.9c-7.4-3-4.3,7.2-0.2,6"/>
	<path id="path2710" sodipodi:nodetypes="cs" class="st0" d="M14.9,21.5c-2.1-1.6-2.9,1.6,0.2,3"/>
	<path id="path2743" sodipodi:nodetypes="cc" class="st0" d="M43.4,22c7.7-1.9,3.3,7.7-0.7,6"/>
	<path id="path2745" sodipodi:nodetypes="cs" class="st0" d="M44.2,23.6c2.3-1.3,2.7,2-0.6,2.9"/>
	<path id="path3351" sodipodi:nodetypes="cscccccccc" class="st1" d="M31.2,6.5c-2.1-3.4,1.2-6.9,8-2.9C56.6,14,43.4,48.6,50,54.1
		c-3.2-0.2-5,4.7-4.4,4.5c0.1-6.9-4.7-13.1-5-2.2c-4-7.7,4.2-13.2,2.7-21.6c-0.6,3.8-0.7,7.2-3.6,9.2c4.1-15.3,3.4-27.7-4.2-35.9
		c2.8,3.9,2.7,6.8,3,9.9C37.2,13.3,35.8,8.5,31.2,6.5z"/>
	<path id="path3361" class="st1" d="M18.9,18.1c0,0,7.2-4.5,7.1-2.6C25.8,17.5,18.9,18.2,18.9,18.1z"/>
	<path id="path3353" sodipodi:nodetypes="ccccccccsc" class="st1" d="M29.3,6.8c2.7-7.7-11.7-4.1-16.1,6C10.4,22.9,9,39.4,9.5,45.3
		s2.6,8.4,2.6,8.4c-1-4.5-2.3-9.1-0.1-10.4l3.2,12.4c-0.2-4.6-2.6-9.8-0.4-13.9c2.1-2.5,2.6,4.9,2.2,5.4c1.2-1.5,2.4-10.6,0.1-12.6
		C14.9,32.4,18.8,3.9,29.3,6.8z"/>
	<path id="path3363" sodipodi:nodetypes="cccc" class="st2" d="M39.2,11.6c9.6,2.2,3.7,29.9,1.4,31.3C43.2,32.4,43.4,21,40,13.1
		L39.2,11.6z"/>
	<path id="path3365" sodipodi:nodetypes="cccc" class="st2" d="M18.5,16.4c-4.3,7.3-3.8,14.2-5,21.3c1.1-6.9-4.8-15.1,5.2-22.9
		L18.5,16.4z"/>
	<path id="path3367" sodipodi:nodetypes="cccc" class="st2" d="M35.7,2.5c7.6,6,7.3,5.7,9.6,11.8c-2.8-5-7.1-7.9-12.5-11.4L35.7,2.5
		z"/>
	<path id="path3369" sodipodi:nodetypes="cccc" class="st2" d="M44.9,36.4c7.6,6-0.9,13.9,1.4,20c-2.8-5,1.8-13.7-1.8-19.3
		L44.9,36.4z"/>
</g>
<g id="Mouths">
	<path id="Smile" sodipodi:nodetypes="cc" class="st3" d="M33.1,40.1c-1.2-1.8-5.9-1.8-7,0.9"/>
	<g id="AEI" class="st4">
		<path class="st5" d="M34.7,39.5c-0.7-1.5-1.5-2-2.1-2.2c-1-0.3-1.4,0.4-2.9,0.4c-1.7,0-2.2-0.8-3.3-0.4c-0.5,0.2-1.2,0.7-1.7,2.1
			c0.5,0.6,1.5,1.7,3,2c0.9,0.2,1.8,0.2,2.1,0.2c0.2,0,0.9,0,1.5-0.2C32.9,41.1,34,40.2,34.7,39.5z"/>
		<path class="st6" d="M27.5,40.3c0,0,1.7-1.7,4,0.1C31.5,40.4,29.2,41.5,27.5,40.3z"/>
		<path class="st7" d="M26.2,37.4c0.5-0.3,1-0.2,1.3-0.2c1.3,0.1,2.2,0.2,3.1,0.1c0,0,1-0.1,1.9,0c0.1,0,0.2,0,0.4,0.1
			c0.3,0.1,0.6,0.4,0.7,0.6c-0.1,0.3-0.3,0.5-0.5,0.7c-0.2,0.2-1.2,0.5-2.3,0.5c-0.3,0-0.7,0-0.9,0c-0.3,0-2.5,0-3.3-0.4
			c-0.2-0.1-0.6-0.3-0.8-1C25.8,37.6,26,37.5,26.2,37.4z"/>
		<path class="st7" d="M32.4,40c0,0,0.2-0.1,0.5,0c0.1,0,0.2,0.1,0.2,0.1c0.2,0.1,0.4,0.3,0.5,0.3c-0.3,0.3-1,0.7-1.8,1
			c-0.6,0.2-1.1,0.2-1.8,0.2c-0.8,0-1.4,0-2.1-0.2c-0.4-0.1-1.1-0.4-1.8-0.9c0.1-0.1,0.2-0.2,0.4-0.4c0,0,0.1-0.1,0.3-0.2
			c0.5-0.2,2,0.2,3.1,0.2C30.5,40.3,32.1,40.1,32.4,40z"/>
	</g>
	<g id="Neutral" class="st4">
		<path class="st5" d="M34.7,39.6c-0.4-0.5-1.1-1.1-2-1.4c-1-0.3-1.3,0.1-2.9,0.1c-1.8,0-2.2-0.4-3.2-0.2c-0.9,0.2-1.5,0.9-1.8,1.3
			c0.5,0.6,1.5,1.7,3,2c0.9,0.2,1.8,0.2,2.1,0.2c0.2,0,0.9,0,1.5-0.2C32.9,41.1,34,40.2,34.7,39.6z"/>
		<path class="st6" d="M27.6,40.4c0.1-0.2,0.2-0.5,0.4-0.8c0.8-0.8,2.6-0.7,3.3,0.2c0.2,0.2,0.3,0.5,0.3,0.7
			C31.3,40.7,30.8,40.8,27.6,40.4z"/>
		<path class="st7" d="M26.2,38.1c0.4-0.2,0.9-0.2,1.3-0.2c0.8,0.1,1.5,0.1,2.1,0.2c1.2,0,1.8-0.1,2.2-0.1c0.1,0,0.4-0.1,0.8,0
			c0.3,0.1,0.5,0.2,0.5,0.2c0.2,0.1,0.4,0.3,0.5,0.4c-0.1,0.3-0.3,0.5-0.5,0.7c-0.2,0.2-1.2,0.5-2.3,0.5c-0.3,0-0.7,0-0.9,0
			c-0.3,0-2.5,0-3.3-0.4c-0.2-0.1-0.6-0.3-0.8-0.9C25.8,38.4,26,38.3,26.2,38.1z"/>
		<path class="st7" d="M32.5,40.1c0,0,0.2-0.1,0.5,0c0.1,0,0.2,0.1,0.2,0.1c0.2,0.1,0.3,0.2,0.4,0.3c-0.3,0.3-0.9,0.7-1.7,1
			c-0.6,0.2-1.1,0.2-1.8,0.2c-0.8,0-1.4,0-2.1-0.2c-0.4-0.1-1.2-0.3-1.9-0.9c0.1-0.1,0.2-0.3,0.4-0.4c0,0,0.1-0.1,0.3-0.2
			c0.5-0.2,2,0.2,3.1,0.2C30.6,40.4,32.2,40.2,32.5,40.1z"/>
	</g>
	<g id="o" class="st4">
		<path class="st5" d="M29.7,36.7c-0.3,0-1.1,0-1.3,1.4c0,0.3,0.1,0.9,0.1,1.3c0,0.4-0.2,1.6,0,2c0.2,0.5,0.6,0.8,1.2,0.8
			c0.6,0,1.2-0.4,1.2-1.1c0-0.8-0.1-1.4-0.1-1.7c0-0.2,0.1-1,0.1-1.4C31,37.7,30.9,36.7,29.7,36.7z"/>
		<path class="st7" d="M30.9,37.7c0-0.1-0.1-0.4-0.2-0.6c-0.3-0.4-0.8-0.4-1-0.4c-0.2,0-0.6,0-0.9,0.3c-0.2,0.2-0.3,0.5-0.3,0.7
			C28.9,37.8,29.9,38.3,30.9,37.7z"/>
		<path class="st6" d="M28.6,41.6c0,0,0.4,0.8,1.1,0.8c0.7,0,1.1-0.6,1.1-0.7C29.9,40.8,29,41.3,28.6,41.6z"/>
	</g>
	<g id="THL" class="st4">
		<path class="st5" d="M34.7,40.1c-0.2-0.8-0.8-2.2-2.1-2.8C32,37,31.3,37,29.9,36.9c-1.6-0.1-2.4-0.1-3,0.2
			c-1.4,0.6-1.9,2.1-2.1,2.8c0.5,0.6,1.5,1.7,3,2c0.9,0.2,1.8,0.2,2.1,0.2c0.2,0,0.9,0,1.5-0.2C32.9,41.6,34,40.7,34.7,40.1z"/>
		<path class="st6" d="M27.5,40.9c-0.1-1.4,1.1-2.5,2.2-2.4c1.1,0.1,2,1.2,1.8,2.6C31.5,41,29.2,42.1,27.5,40.9z"/>
		<path class="st7" d="M26.3,37.4c0.2-0.1,0.5-0.4,1.5-0.6c0.5-0.1,1.1-0.2,2-0.1c0.9,0,1.6,0.1,2,0.2c0.3,0.1,0.6,0.2,0.9,0.3
			c0.3,0.2,0.6,0.5,0.7,0.7c0,0.1-0.1,0.1-0.1,0.2c-0.2,0.2-0.5,0.3-0.6,0.3c-0.9,0.2-1.7,0.2-1.7,0.2c-0.7,0-1,0-1.2,0
			c0,0-1.8,0-3-0.2c-0.1,0-0.3-0.1-0.6-0.2c-0.2-0.1-0.3-0.2-0.4-0.3C25.9,37.8,26.1,37.6,26.3,37.4z"/>
		<path class="st7" d="M32.4,40.6c0,0,0.2-0.1,0.5,0c0.1,0,0.2,0.1,0.2,0.1c0.2,0.1,0.4,0.3,0.5,0.3c-0.3,0.3-0.9,0.7-1.8,1
			c-0.8,0.3-1.5,0.3-2,0.3c-0.4,0-1.2,0-2.2-0.3c-0.7-0.3-1.3-0.6-1.6-0.9c0.1-0.1,0.2-0.2,0.4-0.4c0,0,0.1-0.1,0.3-0.2
			c0.5-0.2,2,0.2,3.1,0.2C30.5,40.9,32.1,40.7,32.4,40.6z"/>
	</g>
	<g id="FV" class="st4">
		<g class="st8">
			<path class="st9" d="M34.7,40.3c-0.2-0.4-0.6-0.8-1.1-1.2c-1-0.7-2-0.7-2.3-0.7c-0.4,0-0.4,0.1-1,0.1c-1,0-1.2-0.1-1.9-0.1
				c-0.3,0-2.2,0-3.3,1.3c-0.2,0.2-0.3,0.5-0.4,0.6c0.3-0.1,0.6-0.1,0.8-0.1c0.1,0,0.4,0,0.6-0.1c0.2,0,0.3,0,0.5,0c0,0,0.1,0,0.2,0
				c0.2,0,1,0,1.9,0.1c0.8,0,1.5,0,1.7,0c0.1,0,0.2,0,0.2,0c0.2,0,0.3,0,0.7-0.1c0.5,0,0.9-0.1,1.1-0.1
				C32.7,40.1,33.4,40.1,34.7,40.3z"/>
			<path class="st9" d="M31.6,38.4c-0.2,0-0.5,0-0.5,0c-0.2,0-0.2,0-0.4,0.1c-0.2,0-0.4,0-0.6,0c-0.4,0-0.7,0-0.8,0
				c-1-0.1-1.5-0.1-2,0c-0.2,0.1-0.7,0.1-1.1,0.4c0.2,0.4,0.4,0.6,0.6,0.7c0.6,0.5,1.4,0.5,2.9,0.5c0.3,0,0.4,0,0.7,0
				c0.8,0,1.6-0.1,2.1-0.6c0.1-0.1,0.3-0.3,0.4-0.7C32.8,38.7,32.1,38.4,31.6,38.4z"/>
			<path class="st9" d="M27.8,41.2c0.1,0,0.2-0.1,0.3-0.1c0.1,0,0.2,0,0.3-0.1c0.1,0,0.2,0,0.3-0.1c0.1,0,0.2,0,0.3,0
				c0.3-0.1,0.7-0.1,1.1-0.1c0.4,0,0.7,0,1.1,0.1c0.1,0,0.2,0,0.3,0c0.1,0,0.2,0,0.3,0.1l0.1,0c0,0,0.1,0,0.1,0
				c0.1,0,0.2,0.1,0.2,0.1c-0.1,0-0.2,0-0.3,0c0,0-0.1,0-0.1,0l-0.1,0l-0.1,0c0,0-0.1,0-0.1,0c-0.1,0-0.2,0-0.3,0c-0.3,0-0.7,0-1,0
				c-0.3,0-0.7,0-1,0C28.5,41.2,28.1,41.2,27.8,41.2z"/>
		</g>
		<g class="st8">
			<path class="st10" d="M34.7,40.3c-0.2-0.4-0.6-0.8-1.1-1.2c-1-0.7-2-0.7-2.3-0.7c-0.4,0-0.4,0.1-1,0.1c-1,0-1.2-0.1-1.9-0.1
				c-0.3,0-2.2,0-3.3,1.3c-0.2,0.2-0.3,0.5-0.4,0.6c0.3-0.1,0.6-0.1,0.8-0.1c0.1,0,0.4,0,0.6-0.1c0.2,0,0.3,0,0.5,0c0,0,0.1,0,0.2,0
				c0.2,0,1,0,1.9,0.1c0.8,0,1.5,0,1.7,0c0.1,0,0.2,0,0.2,0c0.2,0,0.3,0,0.7-0.1c0.5,0,0.9-0.1,1.1-0.1
				C32.7,40.1,33.4,40.1,34.7,40.3z"/>
			<path class="st11" d="M31.6,38.4c-0.2,0-0.5,0-0.5,0c-0.2,0-0.2,0-0.4,0.1c-0.2,0-0.4,0-0.6,0c-0.4,0-0.7,0-0.8,0
				c-1-0.1-1.5-0.1-2,0c-0.2,0.1-0.7,0.1-1.1,0.4c0.2,0.4,0.4,0.6,0.6,0.7c0.6,0.5,1.4,0.5,2.9,0.5c0.3,0,0.4,0,0.7,0
				c0.8,0,1.6-0.1,2.1-0.6c0.1-0.1,0.3-0.3,0.4-0.7C32.8,38.7,32.1,38.4,31.6,38.4z"/>
			<path class="st9" d="M27.8,41.2c0.1,0,0.2-0.1,0.3-0.1c0.1,0,0.2,0,0.3-0.1c0.1,0,0.2,0,0.3-0.1c0.1,0,0.2,0,0.3,0
				c0.3-0.1,0.7-0.1,1.1-0.1c0.4,0,0.7,0,1.1,0.1c0.1,0,0.2,0,0.3,0c0.1,0,0.2,0,0.3,0.1l0.1,0c0,0,0.1,0,0.1,0
				c0.1,0,0.2,0.1,0.2,0.1c-0.1,0-0.2,0-0.3,0c0,0-0.1,0-0.1,0l-0.1,0l-0.1,0c0,0-0.1,0-0.1,0c-0.1,0-0.2,0-0.3,0c-0.3,0-0.7,0-1,0
				c-0.3,0-0.7,0-1,0C28.5,41.2,28.1,41.2,27.8,41.2z"/>
		</g>
	</g>
	<g id="QW" class="st4">
		<path class="st5" d="M32.6,38.8c-0.2-0.3-0.5-0.8-1.1-1.3c-0.3-0.3-1-0.8-2-0.8c-1.1,0-1.8,0.6-2,0.8c-0.5,0.5-0.8,1-0.9,1.3
			c0,0.2,0,2.1,1.4,3c0.2,0.1,0.7,0.5,1.5,0.5c1.1,0,1.8-0.5,2-0.7C32.6,40.6,32.6,39.1,32.6,38.8z"/>
		<path class="st7" d="M31.7,37.6c0,0-0.1-0.1-0.1-0.2c-0.6-0.8-1.7-0.8-2-0.8c-0.2,0-1.3,0-2,0.7c-0.1,0.1-0.1,0.2-0.2,0.2
			C28.1,37.9,29.8,38.5,31.7,37.6z"/>
		<path class="st6" d="M29.3,40.4c-0.8-0.5-1.9-0.2-2.5,0.1c0.1,0.3,0.3,0.5,0.4,0.7c0.1,0.1,0.2,0.3,0.4,0.5c0,0,0.2,0.2,0.4,0.3
			c0.5,0.3,1.1,0.4,1.3,0.4c1.1,0.1,1.9-0.6,2.1-0.8c0.4-0.4,0.6-0.8,0.8-1c-0.2-0.1-0.7-0.5-1.5-0.5C30.1,40.1,29.6,40.3,29.3,40.4
			z"/>
	</g>
	<g id="hulplijnen" class="st4">
		<g class="st8">
			<g>
			</g>
		</g>
	</g>
</g>
<g id="Ogen">
	<g id="open">
		<path id="path2698" sodipodi:nodetypes="ccc" class="st12" d="M34.6,19.4c2.6,0.5,3.8,2.3,3.4,4.9C35.1,29.4,29.3,22.3,34.6,19.4z
			"/>
		<path id="path2702" sodipodi:nodetypes="cssc" class="st13" d="M35.2,22.6c-0.5-0.9,2.2-0.2,1.5,2c-0.4,1.5-2.1,0.6-2.2,0.5
			C32.8,24.1,34.1,21.3,35.2,22.6z"/>
		<path id="path2696" sodipodi:nodetypes="cccc" class="st12" d="M26.7,21.5c1.4,3,0.4,4.8-2.5,4.4c-0.9,0.4-2.8-1.8-2.4-3.2
			C21.4,18.8,24.7,18.7,26.7,21.5z"/>
		<path id="path2700" sodipodi:nodetypes="cssc" class="st13" d="M23.3,23.2c-0.6,0,0.7-2,2.3-0.5c1.2,1.2-0.1,2.8-1,2.9
			C22.8,25.9,22.5,23.5,23.3,23.2z"/>
	</g>
	<g class="st4">
		<path class="st14" d="M21.7,23.6c0,0,0-1.9,2.8-1.9s2.8,1.9,2.8,1.9"/>
		<path class="st14" d="M32.8,23.6c0,0-0.1-1.9,2.7-1.9c2.8,0,2.8,1.9,2.8,1.9"/>
	</g>
</g>
<g id="Beard">
	<path id="path2654" sodipodi:nodetypes="cccccccccccccccccc" class="st1" d="M29.5,34c6.2-0.1,8.4,1.8,11.6,3.7
		c0.5,0.2,1.2,0.5,1.6,1c1.7,3.5-0.6,13.7-3.7,15.9c-0.3-1.6-3.9-3.8-5-3.9c-1.6-0.9-1.5,3.5-3.1,3.2c-0.7-2.5-3.1-4-4.7-3.2
		c-0.9-0.1-1.3,3.4-3.9,2.6c0.3-1.7-1.8-5.8-2.8-6.1c-1.7-1.1-2.5-3-2.8-5.6c0.2-2.6,1.3-4.6,3.5-5.9C23.2,34.8,23.3,33.9,29.5,34z
		 M29.6,35.7c-2.3,0.3-5.5,0-7.1,2.5c-0.6,2.3,0.6,5.9,3,5.7c2.8-1.4,6-0.9,8.7,0c2.1,0.4,2.8-2.3,2.7-4
		C36.2,34.8,31.8,36.1,29.6,35.7z"/>
</g>
</svg>
